<?xml version="1.0" encoding="utf-8"?>
<!-- Generator: Adobe Illustrator 24.1.1, SVG Export Plug-In . SVG Version: 6.00 Build 0)  -->
<svg version="1.1" id="Layer_1" xmlns="http://www.w3.org/2000/svg" xmlns:xlink="http://www.w3.org/1999/xlink" x="0px" y="0px"
	 viewBox="0 0 500 500" style="enable-background:new 0 0 500 500;" xml:space="preserve">
<style type="text/css">
	.st0{fill:none;}
	.st1{fill:#FFF312;}
	.st2{display:none;}
	.st3{display:inline;}
	.st4{font-family:'Bellefair-Regular';}
	.st5{font-size:256px;}
</style>
<g id="test">
	<polyline class="st0" points="181.8,129.1 310.5,129.1 310.5,252.1 181.8,252.1 181.8,129.1 181.8,129.1 	"/>
	<polyline class="st0" points="181.8,129.1 310.5,129.1 181.8,129.1 181.8,252.1 310.5,252.1 310.5,129.1 	"/>
	<polyline class="st0" points="238,203.2 246.1,221.5 238,203.2 244.7,203.2 246.1,221.5 	"/>
	<path class="st0" d="M152.3,105.3"/>
</g>
<g id="Layer_1_1_">
	<desc>Created with Fabric.js 4.6.0</desc>
	<g id="FBcIuA6HPjBjefp6Tnog-" transform="matrix(2.02 2.02 -2.02 2.02 244.73 193.31)">
		<path vector-effect="non-scaling-stroke" d="M-42.5-44.7h87.3v87.3h-87.3V-44.7z"/>
	</g>
</g>
<g id="Layer_6">
	<ellipse class="st1" cx="249.7" cy="191" rx="70.3" ry="68.1"/>
	<ellipse cx="249.7" cy="190.6" rx="63" ry="61.5"/>
</g>
<g id="AM">
	<g id="M0bktbld61JAWpwBG7gKI" transform="matrix(0.24 0 0 0.24 249.47 200.83)">
		
			<image style="overflow:visible;enable-background:new    ;" width="2088" height="2088" xlink:href="6896BBA0.png"  vector-effect="non-scaling-stroke" transform="matrix(0.8296 0 0 0.9976 -858.161 -1033.0952)">
		</image>
	</g>
	<path class="st0" d="M210,146.8l17.8,49.2L210,244.6v5.6h14.6c0,0-0.4-0.4-1.7-1.8c-1.4-1.4-2-4.1-2.2-5c-0.2-0.9-0.2-5.2,0.2-6.3
		c0.4-1.1,10.6-31.9,10.6-31.9l17.1,46.9l17.4-46.9l9.4,28.7c0,0,1,4.3,1,5.4c0,1.1,0.7,2.1,0,4.9c-0.7,2.8-4.2,6-4.2,6h15.1v-6
		l-8.5-22.6l-9.1-25.5l17.6-49.2v-17.7h-5.7l-17.5,50.2l-15.5-44.5l-15.5,44.5l-18-50.2h-5.7H195c0,0,5.1,3.6,5.6,4.7
		c0.5,1.1,2.2,4.9,2.2,6.1c0,1.2,0,97.4,0,97.4s-1,6.3-2,7.8s-4.6,5.1-5.7,5.1"/>
</g>
<g id="O" class="st2">
	<g id="gpNpn4vnhapZ7tJiDWLcz" transform="matrix(1 0 0 1 244.73 169.44)" class="st3">
		<text transform="matrix(1 0 0 1 -104.2489 108.9833)" class="st1 st4 st5">O</text>
	</g>
</g>
<g id="Name">
	<g id="vosiw8Zh2Mk23SCOuZ_2u" transform="matrix(1 0 0 1 245.05 432.47)">
		<path vector-effect="non-scaling-stroke" d="M-184.7-9.3h-11.2l-2.9,7.2c-0.4,1.1-0.7,2-0.7,2.7l0,0c0,1,0.4,1.7,1.3,2.1l0,0h-6.4
			c0.3,0,0.7-0.3,1.3-0.9s1.2-1.8,2-3.6l0,0l11.7-27.9l11.7,28.1c0.7,1.6,1.3,2.7,1.9,3.3c0.6,0.6,1.1,0.9,1.5,1l0,0h-7.5
			c0.8-0.4,1.1-0.9,1.1-1.7l0,0c0-0.6-0.2-1.5-0.7-2.7l0,0L-184.7-9.3z M-195.1-11.2h9.7l-4.9-12L-195.1-11.2z M-145.6-0.1
			c-1.1,0.9-2.6,1.7-4.5,2.3c-1.8,0.6-3.7,0.9-5.5,0.9l0,0c-2.8,0-5.4-0.6-7.8-1.9c-2.4-1.3-4.3-3.1-5.8-5.6
			c-1.5-2.4-2.2-5.3-2.2-8.6l0,0c0-3.1,0.7-5.8,2-8.2s3.2-4.3,5.7-5.7c2.5-1.4,5.4-2,8.7-2l0,0c3.5,0,6.6,0.8,9.4,2.3l0,0v5
			c-0.9-1.7-2.3-3-4.1-3.9c-1.8-1-3.7-1.5-5.7-1.5l0,0c-2.6,0-4.8,0.6-6.6,1.8c-1.9,1.2-3.3,2.8-4.3,4.9s-1.5,4.4-1.5,7l0,0
			c0,2.9,0.6,5.4,1.7,7.6c1.1,2.2,2.6,3.8,4.6,5c1.9,1.2,4.1,1.7,6.4,1.7l0,0c3.8,0,7-1.1,9.4-3.3l0,0v2.2H-145.6z M-135.7-26.5
			c-1.3,0-2.4,0.3-3.3,0.8c-0.9,0.5-1.5,1.2-1.9,1.9l0,0l0.6-4.5h21.3l0.6,4.5c-0.4-0.8-1-1.4-1.9-1.9s-2-0.8-3.3-0.8l0,0h-4.5v25
			c0,1.2,0.2,2.1,0.5,2.7s0.6,1.1,1,1.3s0.5,0.3,0.5,0.2l0,0h-7.2c0,0.1,0.2,0,0.5-0.2s0.7-0.6,1-1.2s0.4-1.5,0.4-2.8l0,0v-25
			H-135.7z M-113.5,2.7c0,0.1,0.2,0,0.5-0.2c0.4-0.2,0.7-0.6,1-1.3c0.3-0.6,0.4-1.5,0.4-2.7l0,0v-22.6c0-1.2-0.1-2.1-0.4-2.7
			s-0.6-1-1-1.2s-0.5-0.3-0.5-0.2l0,0h7.2c0-0.1-0.2,0-0.5,0.2c-0.4,0.2-0.7,0.6-1,1.2s-0.4,1.5-0.4,2.7l0,0v22.6
			c0,1.2,0.1,2.1,0.4,2.7s0.6,1,1,1.2s0.5,0.3,0.5,0.2l0,0L-113.5,2.7L-113.5,2.7z M-79-25.9c0-0.6-0.2-1.1-0.5-1.6
			c-0.3-0.4-0.8-0.7-1.5-0.8l0,0h7.6c-0.4,0.1-0.9,0.4-1.6,1s-1.4,1.8-2.1,3.5l0,0L-88.5,3.8L-100-23.9c-0.7-1.6-1.3-2.7-2-3.3
			c-0.6-0.6-1.2-1-1.6-1.1l0,0h7.5c-0.8,0.2-1.2,0.7-1.2,1.6l0,0c0,0.4,0.1,0.9,0.3,1.4c0.2,0.5,0.3,0.8,0.4,0.9l0,0L-87.9-3
			l8.5-20.8C-79.1-24.5-79-25.2-79-25.9L-79-25.9z M-53.7,2.7h-17c0,0.1,0.2,0,0.5-0.2c0.4-0.2,0.7-0.7,1-1.3
			c0.3-0.7,0.4-1.7,0.4-2.9l0,0v-22.1c0-1.2-0.1-2.2-0.4-2.8c-0.3-0.6-0.6-1.1-1-1.3c-0.4-0.2-0.5-0.3-0.5-0.2l0,0h16.3v4.5
			c-0.5-1.8-2.2-2.7-4.9-2.7l0,0h-6.3v12.8h7.7c0.6,0,1.1-0.1,1.5-0.3s0.7-0.4,0.9-0.6c0.2-0.2,0.3-0.3,0.4-0.4l0,0v4.4
			c0-0.1-0.2-0.2-0.4-0.4s-0.5-0.4-0.9-0.6c-0.4-0.2-0.9-0.3-1.5-0.3l0,0h-7.8V0.9h7c1.3,0,2.5-0.3,3.5-0.8c1-0.6,1.7-1.3,2.1-2.1
			l0,0L-53.7,2.7z M-35.9-12.4c0-3.2,0.7-6,2-8.5c1.4-2.5,3.3-4.4,5.8-5.8c2.5-1.4,5.3-2.1,8.6-2.1l0,0c2.7,0,5.2,0.6,7.6,1.8
			c2.4,1.2,4.2,3,5.7,5.3c1.4,2.4,2.1,5.2,2.1,8.5l0,0c0,3.2-0.7,6-2,8.5c-1.4,2.5-3.3,4.4-5.8,5.8s-5.3,2.1-8.6,2.1l0,0
			c-2.7,0-5.2-0.6-7.6-1.8s-4.2-3-5.7-5.3C-35.2-6.3-35.9-9.1-35.9-12.4L-35.9-12.4z M-7.7-12.5c0-2.7-0.6-5.2-1.7-7.4
			s-2.7-3.9-4.6-5.2c-2-1.2-4.2-1.9-6.6-1.9l0,0c-2.3,0-4.3,0.6-6,1.7c-1.8,1.1-3.1,2.8-4.1,4.8c-1,2.1-1.5,4.5-1.5,7.3l0,0
			c0,2.7,0.6,5.2,1.7,7.4s2.7,3.9,4.6,5.2c2,1.2,4.2,1.9,6.6,1.9l0,0c2.3,0,4.3-0.6,6-1.7c1.8-1.1,3.1-2.8,4.1-4.8
			C-8.2-7.3-7.7-9.7-7.7-12.5L-7.7-12.5z M26.1-24.1v16c0,2.4-0.4,4.4-1.4,6.1c-0.9,1.7-2.2,3-3.8,3.9c-1.6,0.9-3.5,1.3-5.7,1.3l0,0
			c-3.6,0-6.3-1-8.3-3S4-4.5,4-8l0,0v-16.1c0-1.2-0.1-2.1-0.4-2.7S3-27.8,2.7-28s-0.5-0.3-0.5-0.2l0,0h7c0-0.1-0.2,0-0.5,0.2
			S8-27.4,7.8-26.8c-0.3,0.6-0.4,1.5-0.4,2.6l0,0V-8c0,2.9,0.7,5.2,2.1,6.8s3.4,2.4,6.1,2.4l0,0c2.5,0,4.5-0.8,5.9-2.3
			s2.2-3.8,2.2-6.7l0,0V-24c0-1.2-0.2-2.1-0.5-2.7s-0.6-1-1-1.2s-0.5-0.3-0.5-0.2l0,0h6.5c0-0.1-0.2,0-0.5,0.2
			c-0.4,0.2-0.7,0.6-1,1.2C26.2-26.2,26.1-25.3,26.1-24.1L26.1-24.1z M37.2-26.5c-1.3,0-2.4,0.3-3.3,0.8c-0.9,0.5-1.5,1.2-1.9,1.9
			l0,0l0.6-4.5H54l0.6,4.5c-0.4-0.8-1-1.4-1.9-1.9s-2-0.8-3.3-0.8l0,0h-4.5v25c0,1.2,0.1,2.1,0.4,2.7c0.3,0.6,0.6,1.1,1,1.3
			s0.5,0.3,0.5,0.2l0,0h-7.2c0,0.1,0.2,0,0.5-0.2c0.4-0.2,0.7-0.6,1-1.2s0.4-1.5,0.4-2.8l0,0v-25H37.2z M68.5-12.9
			c1.4,0,2.6-0.3,3.6-1c1-0.6,1.8-1.5,2.3-2.5s0.8-2.1,0.8-3.3l0,0c0-1.2-0.2-2.3-0.7-3.3s-1.3-1.9-2.3-2.5c-1-0.7-2.3-1-3.7-1l0,0
			h-3.8v25c0,1.2,0.2,2.1,0.5,2.7s0.6,1,1,1.2s0.5,0.3,0.5,0.2l0,0h-7.2c0,0.1,0.2,0,0.5-0.2c0.4-0.2,0.7-0.6,1-1.2s0.4-1.5,0.4-2.7
			l0,0V-24c0-1.2-0.1-2.2-0.4-2.8c-0.3-0.6-0.6-1.1-1-1.3c-0.4-0.2-0.5-0.3-0.5-0.2l0,0h8.9c2.3,0,4.3,0.4,5.8,1.1
			c1.5,0.8,2.6,1.8,3.3,3c0.7,1.2,1,2.5,1,4l0,0c0,1.2-0.3,2.4-0.9,3.5c-0.6,1.2-1.4,2.2-2.5,3c-1.1,0.9-2.3,1.4-3.7,1.8l0,0
			l-0.7,0.1l7.9,10.1c1,1.2,1.9,2.1,2.6,2.7s1.2,1.1,1.5,1.3c0.3,0.2,0.5,0.3,0.6,0.4l0,0H78L65.8-12.9H68.5z M104.5,2.7h-17
			c0,0.1,0.2,0,0.5-0.2c0.4-0.2,0.7-0.7,1-1.3c0.3-0.7,0.4-1.7,0.4-2.9l0,0v-22.1c0-1.2-0.1-2.2-0.4-2.8c-0.3-0.6-0.6-1.1-1-1.3
			c-0.4-0.2-0.5-0.3-0.5-0.2l0,0h16.3v4.5c-0.5-1.8-2.2-2.7-4.9-2.7l0,0h-6.3v12.8h7.7c0.6,0,1.1-0.1,1.5-0.3s0.7-0.4,0.9-0.6
			c0.2-0.2,0.3-0.3,0.4-0.4l0,0v4.4c0-0.1-0.2-0.2-0.4-0.4c-0.2-0.2-0.5-0.4-0.9-0.6c-0.4-0.2-0.9-0.3-1.5-0.3l0,0h-7.8V0.9h7
			c1.4,0,2.5-0.3,3.5-0.8c1-0.6,1.7-1.3,2.1-2.1l0,0L104.5,2.7z M110.6-5.6v-2.6h7.9v2.6H110.6z M158.5,2.7h-7
			c0.4-0.1,0.8-0.4,1.2-1s0.6-1.7,0.6-3.3l0,0V-24L141.5,3.2l-12-27.2v22.2c0,1.6,0.3,2.8,0.8,3.4s1,1,1.4,1.1l0,0H125
			c0.4-0.1,0.9-0.4,1.5-1c0.5-0.6,0.8-1.8,0.8-3.4l0,0v-22.5c0-1.4-0.3-2.4-0.8-3c-0.5-0.5-1-0.9-1.5-1l0,0h6.1l11,25.2L153-28.3
			h5.4c-0.4,0.1-0.8,0.4-1.3,0.9c-0.4,0.6-0.7,1.6-0.7,3.1l0,0v22.8c0,1.5,0.2,2.5,0.7,3.1S158.1,2.6,158.5,2.7L158.5,2.7z
			 M182.6,2.7h-17c0,0.1,0.2,0,0.5-0.2c0.4-0.2,0.7-0.7,1-1.3c0.3-0.7,0.4-1.7,0.4-2.9l0,0v-22.1c0-1.2-0.1-2.2-0.4-2.8
			c-0.3-0.6-0.6-1.1-1-1.3c-0.4-0.2-0.5-0.3-0.5-0.2l0,0h16.3v4.5c-0.5-1.8-2.2-2.7-4.9-2.7l0,0h-6.3v12.8h7.7
			c0.6,0,1.1-0.1,1.5-0.3s0.7-0.4,0.9-0.6c0.2-0.2,0.3-0.3,0.4-0.4l0,0v4.4c0-0.1-0.2-0.2-0.4-0.4s-0.5-0.4-0.9-0.6
			c-0.4-0.2-0.9-0.3-1.5-0.3l0,0h-7.8V0.9h7c1.4,0,2.5-0.3,3.5-0.8c1-0.6,1.7-1.3,2.1-2.1l0,0L182.6,2.7z M198.6-12.9
			c1.4,0,2.6-0.3,3.6-1c1-0.6,1.8-1.5,2.3-2.5s0.8-2.1,0.8-3.3l0,0c0-1.2-0.2-2.3-0.7-3.3s-1.3-1.9-2.3-2.5s-2.3-1-3.7-1l0,0h-3.8
			v25c0,1.2,0.1,2.1,0.4,2.7c0.3,0.6,0.6,1,1,1.2s0.5,0.3,0.5,0.2l0,0h-7.2c0,0.1,0.2,0,0.5-0.2s0.7-0.6,1-1.2s0.4-1.5,0.4-2.7l0,0
			V-24c0-1.2-0.1-2.2-0.4-2.8c-0.3-0.6-0.6-1.1-1-1.3c-0.4-0.2-0.5-0.3-0.5-0.2l0,0h8.9c2.3,0,4.3,0.4,5.8,1.1
			c1.5,0.8,2.6,1.8,3.3,3s1,2.5,1,4l0,0c0,1.2-0.3,2.4-0.9,3.5c-0.6,1.2-1.4,2.2-2.5,3c-1.1,0.9-2.3,1.4-3.7,1.8l0,0l-0.7,0.1
			l7.9,10.1c1,1.2,1.9,2.1,2.6,2.7c0.7,0.6,1.2,1.1,1.5,1.3c0.3,0.2,0.5,0.3,0.6,0.4l0,0H208l-12.2-15.6
			C195.8-12.9,198.6-12.9,198.6-12.9z"/>
	</g>
</g>
</svg>
